<?xml version="1.0" encoding="UTF-8"?>
<svg id="Layer_1" data-name="Layer 1" xmlns="http://www.w3.org/2000/svg" viewBox="0 0 586.61 359.42">
  <defs>
    <style>
      .cls-1 {
        fill: #2472d7;
      }

      .cls-1, .cls-2, .cls-3, .cls-4, .cls-5, .cls-6, .cls-7, .cls-8, .cls-9, .cls-10, .cls-11, .cls-12, .cls-13, .cls-14, .cls-15, .cls-16, .cls-17, .cls-18, .cls-19, .cls-20, .cls-21, .cls-22, .cls-23, .cls-24, .cls-25, .cls-26, .cls-27, .cls-28, .cls-29, .cls-30, .cls-31, .cls-32, .cls-33 {
        stroke-width: 0px;
      }

      .cls-2 {
        fill: #0b1217;
      }

      .cls-3 {
        fill: #03090a;
      }

      .cls-4 {
        fill: #f49ac1;
      }

      .cls-5 {
        fill: #070402;
      }

      .cls-6 {
        fill: #0c0d10;
      }

      .cls-7 {
        fill: #04090a;
      }

      .cls-8 {
        fill: #7aaee6;
      }

      .cls-9 {
        fill: #fbf281;
      }

      .cls-10 {
        fill: #00a651;
      }

      .cls-11 {
        fill: #17131d;
      }

      .cls-12 {
        fill: #176bd6;
      }

      .cls-13 {
        fill: #010405;
      }

      .cls-14 {
        fill: #1e6bd4;
      }

      .cls-15 {
        fill: #0b0904;
      }

      .cls-16 {
        fill: #cfc;
      }

      .cls-17 {
        fill: #060a0d;
      }

      .cls-18 {
        fill: #0c0a0f;
      }

      .cls-19 {
        fill: #fac8d0;
      }

      .cls-20 {
        fill: #08070a;
      }

      .cls-21 {
        fill: #100e15;
      }

      .cls-22 {
        fill: #2e3192;
      }

      .cls-23 {
        fill: #04070a;
      }

      .cls-24 {
        fill: #081016;
      }

      .cls-25 {
        fill: #0e0c12;
      }

      .cls-26 {
        fill: #060d0f;
      }

      .cls-27 {
        fill: #7aafe8;
      }

      .cls-28 {
        fill: #0e0c11;
      }

      .cls-29 {
        fill: #0e1f25;
      }

      .cls-30 {
        fill: #303789;
      }

      .cls-31 {
        fill: #166bd4;
      }

      .cls-32 {
        fill: #030708;
      }

      .cls-33 {
        fill: #110f16;
      }
    </style>
  </defs>
  <g>
    <path class="cls-19" d="m190.18,296.15c1.2,8.2,2.38,16.41,3.59,24.61,1.97,13.36-1.89,24.9-10.73,34.94-2,2.27-4.3,3.47-7.41,3.24-6.08-.45-12.21.73-18.26-.66.44-2.08,2.28-2.67,3.82-3.6,1.19-.36,2.63-.42,2.55-2.24.07-1.45.85-2.41,2.06-3.09,1.57-.58,2.08-1.9,2.35-3.39.37-1.29.94-2.69.36-3.9-3.61-7.47-7.59-14.79-15.02-19.16-4.18-2.46-8.83-1.54-11.91,1.82-6.51,7.1-13.82,7.04-22.13,4.29-5.32-1.76-10.86-2.89-16.38-4-2.25-.45-4.6-.83-6.19-2.82-2.18-3.5-3.61-7.45-6.85-10.31-2.93-2.59-6.12-4.53-9.95-5.32-6.66-1.37-13.28-2.91-19.95-4.26-4.86-.99-6.02-2.68-5.05-7.29,3.91-18.49,7.79-36.99,11.62-55.5-4.02,18.01-7.83,36.07-11.56,54.15-.59,2.86-.84,6.16-5.51,6.58,10.26,2.59,20.14,4.02,29.8,6.48,11.73,2.99,17.79,11.49,16.71,23.52-.4,4.47-1.35,8.85-2.03,13.28-.76,5.14-.02,10.6-3.23,15.22-17.92.18-35.97,1.67-53.71-.44-26.28-3.12-41.53-25.53-36.02-51.3,6.85-32.08,13.94-64.11,21.46-96.03,6.73-28.57,24.36-48.09,51.61-58.75,3.64-1.43,4.95-3.11,4.5-6.81-.7-5.8.8-10.57,6.9-12.76,1.7-1.71,3.92-1.49,6.01-1.5,8.68-.03,17.37-.15,26.05.05,3.75.67,7.72-.87,11.36,1.08,4.92,1.05,9.91.37,14.86.48,7.61.17,10.57,3,10.64,10.49q.08,8.34,8.1,10.17c20.83,4.78,36.07,16.74,45.65,35.82,7.14,14.21,14.29,28.41,21.06,42.8,1.93,4.1,3.67,4.47,7.31,2.31,6.51-3.86,13.43-4.39,20.46-1.28.54.24.91.88,1.36,1.33-.29.82-.9,1.36-1.6,1.84-5.89,3.98-6.37,5.31-4.88,12.24,1.4,6.52,5.43,11.25,10.24,15.51,2.07,1.83,4.08,1.55,6.39.32,1.93-1.03,3.59-3.2,6.27-2.13.12,7.28-2.26,13.9-8.56,17.43-10.92,6.14-22.25,11.92-34.87,13.68-16.59,2.32-29.69-4.14-39.67-17.37-.78-1.04-1.66-2.01-2.5-3.01-2.18-.78-2.1-2.76-2.35-4.53-1.92-13.6-3.52-27.24-5.48-40.83,2.72,22.89,6.01,45.72,8.74,68.61Z"/>
    <path class="cls-16" d="m118.34,132.63c-10.92,0-21.83.02-32.75.02-7.79-4.68-15.76-9.06-22.83-14.87-4.81-3.96-8.91-8.44-11.46-14.15-1.82-4.07-2.52-8.37-.17-12.45,1.64-2.86.91-3.77-2.09-4.78-9.72-3.27-15.11-9.7-15.23-17.49-.11-7.38,4.23-11.62,11.83-11.37,1.79.06,3.57.67,5.51,0-1.77-3.96-4.28-7.5-5.55-11.65-2.15-6.99.79-12.06,7.93-12.77,3.94-.39,8.16-.78,11.89.21,4.07,1.08,5.58-.53,7.41-3.49,6.16-9.95,14.23-17.84,25.16-22.51,5.09-2.17,10.31-3.63,15.91-3.21,7.17.54,11.14,5.29,10.12,12.5,12.58-5.95,25.7-8.75,39.41-8.5,5.98.11,11.87,1.19,17.46,3.32,10.21,3.9,15.48,11.76,15.42,22.57-.06,11.98-6.81,21.52-18.26,25.84-9.88,3.73-20.12,5.17-30.65,5.1-3.09-.02-7.34-1.49-8.99.73-1.51,2.04,2.07,5.09,2.91,7.89.72,2.37,1.42,4.75,2.13,7.13-.71,1.12-1.9,1.3-3.04,1.37-3.84.25-6.51,2.16-8.21,5.54-1.17,2.32-2.27,2.79-4.37.63-6.17-6.37-11.28-5.75-16.23,1.81-1.2,1.84-2.74,2.83-4.86,2.95-3.15.17-6.21,1.04-9.36,1.15-1.91.07-3.61.46-4.74,2.43,5.17-3.04,10.83-2.39,16.31-2.65,1.93-.09,3.03,1.81,4.32,3.09,5.27,5.25,10.5,4.81,14.78-1.37,1.34-1.93,2.78-3.35,4.61-1.1,3.17,3.9,7.14,5.06,11.9,4.52.47-.05.91.35,1.3.67,3.45,13.34-4.18,29.81-22.74,31.9-1.62.18-3.35-.19-4.76.99Z"/>
    <path class="cls-16" d="m274.85,262.18c-1.16.61-2.35,1.17-3.47,1.84-6.96,4.19-7.35,4.16-13.15-1.85-4.74-4.91-7.43-10.75-8.35-17.54-.59-4.33.28-7.41,4.98-8.55,1.25-.3,2.39-1.1,3.58-1.68,4.48-.9,5.63-3.48,5.72-8.09.17-8.82,3.9-17.04,6-25.54.47-1.92,2-2.55,3.86-2.29,2,.28,2.7,1.8,2.92,3.53.56,4.41.59,8.89,1.92,13.19-1.34,2.34.69,3.67,1.67,5.21,3.28,5.13,5.66,10.44,4.48,16.71,1.6-5.72-.21-10.74-3.08-15.65-1.09-1.87-3.46-3.23-2.75-5.96,6.74-7.03,13.43-14.09,20.25-21.05,1.22-1.25,2.32-3.86,4.77-2.05,2.41,1.78,2.29,4.35.88,6.66-3.54,5.76-7.26,11.42-10.91,17.12-1.07,1.26-2.07-.23-3.6-.01,7.03,4.88,11.86,11.27,15.87,18.66.33-1.12-.04-1.95.47-2.64.44-.24.86-.23,1.27.08,4.02-1.48,8.02-3.01,12.06-4.42,2.1-.73,4.44-1.23,5.46,1.49,1,2.69-1.03,3.88-3.08,4.81-16.18,7.28-30.67,17.51-45.89,26.46-.7.41-1.26,1.04-1.89,1.56Z"/>
    <path class="cls-16" d="m161.18,355.32c-.88,1.48-2.32,2.25-3.81,2.96-1.13.22-2.27.63-3.4.63-21.04-.02-42.08-.09-63.11-.16.71-5.19,1.43-10.38,2.14-15.56,3.49-4.9,2.84-10.71,3.55-16.22.21-1.6-.41-3.35,1.32-4.47,10.29,2.43,20.61,4.75,30.85,7.35,2.93.74,5.05.35,6.99-1.97,1.16-1.39,2.58-2.56,3.94-3.76,6.16-5.46,14.57-4.98,19.74,1.41,3.32,4.1,6.23,8.55,9.26,12.88,1.99,2.85,2.34,5.78-.01,8.66-3.17.74-4.29-2.38-6.47-3.5-1.59-.82-2.59-2.48-4.41-3.12,2.08,1.87,4.04,3.87,6.24,5.63,1.2.97,2.92,1.75,2.28,3.86-.74.93-1.49,1.85-2.23,2.78-3.86,1.28-6.76-1.63-10.43-2.34,2.3,2.24,6.21,1.7,7.56,4.94Z"/>
    <path class="cls-16" d="m308.19,232.27c-.28.07-.57.11-.86.14-4.99-4.69-9.37-9.86-12.61-15.94,5.8-4.92,11.62-9.84,17.41-14.77,2.07-1.77,4.23-2.92,6.48-.45,2.03,2.23.83,4.08-.77,6.1-4.25,5.36-9.72,9.68-12.99,16.04,4.55-2.89,9.09-5.79,13.65-8.65,2.01-1.26,4.27-2.57,6.21-.22,2.21,2.67-.24,4.26-1.99,5.64-4.03,3.17-8.22,6.13-12.31,9.23-.98.74-2.59,1.08-2.22,2.89Z"/>
    <path class="cls-10" d="m145.22,99.79c-6.25,1.94-11,.02-14.48-6.15-1.14,2-1.88,3.76-3.02,5.19-3.71,4.63-11.49,4.38-15.46-.89-2.18-2.89-4.36-3.48-7.57-2.72-1.91.45-3.93.52-5.9.57-2.4.07-4.72.01-5.35,3.13-.2.99-.94,1.98-2.11,1.46-1.03-.46-.92-1.7-.74-2.65.56-2.97,2.48-4.56,5.42-4.91,1.8-.21,3.62-.32,5.43-.47,4.7-.39,8.53-.83,11.23-6.36,2.94-6.03,12.56-3.97,17.56,3.27,1.87-6.91,6.65-9.16,13.21-8.56,7.71,4.39,8.61,7.53,4.88,17.11-.59,1.35-1.56,2.1-3.09,1.96Z"/>
    <path class="cls-15" d="m190.18,296.15c-1.68-.73-1.67-2.28-1.87-3.76-2.87-22.01-5.76-44.02-8.61-66.04-.17-1.33-1.09-3.27,1.31-3.48,2.22-.19,1.4,1.82,1.55,2.91,2.01,14.78,3.94,29.56,5.92,44.34.13.95.51,1.86.78,2.79.76,6.56,1.48,13.12,2.29,19.68.19,1.51.7,3-1.38,3.56Z"/>
    <path class="cls-28" d="m145.22,99.79c1.03-.65,2.06-1.3,3.1-1.96.26,4.77.39,9.5-.58,14.25-2.17,10.58-8.6,17.07-18.72,20.2-3.53.84-7.11.49-10.67.35-.19-1.52.56-1.95,1.99-2.06,18.11-1.41,26.35-12.94,24.89-30.78Z"/>
    <path class="cls-24" d="m294.72,216.48c4.78,4.86,9.43,9.81,12.61,15.94.42,1.07.99,2.11,1.22,3.22.23,1.1-.99,1.28-1.61,1.47-1.37.43-1.49-1.01-1.85-1.77-3.35-7.22-8.45-12.95-14.64-17.85-.92-.73-3.36-1.25-1.9-3.22,1.65-2.23,2.73.19,3.99.89.57.32,1.1.69,1.65,1.04.12.21.3.3.54.28Z"/>
    <path class="cls-5" d="m97.87,322.5c.55,5.98-.6,11.81-1.6,17.65-.33,1.9-.7,3.63-3.28,3.04.59-4.25,1.18-8.49,1.76-12.74,1.47-10.84-4.44-19.77-15.16-22.28-10.16-2.38-20.42-4.31-30.6-6.59-1.24-.28-4.02.73-3.34-2.2.55-2.37,2.49-.9,3.66-.57,4.25,1.21,3.72-2.25,4.17-4.32,4.04-18.62,7.94-37.28,11.96-55.91.26-1.21-.55-3.6,1.9-3.25,2.93.42,1.14,2.57.87,3.89-3.92,18.82-7.83,37.64-12,56.4-.76,3.43.04,4.75,3.38,5.32,5.87,1.01,11.67,2.48,17.55,3.45,10.72,1.76,17.74,7.59,20.73,18.12Z"/>
    <path class="cls-4" d="m6.93,317.14c-.24-5.68,1.09-11.15,2.41-16.6.32-1.33.87-3.32,2.78-2.9,2.14.47,1.84,2.38,1.46,4.07-1.59,7.06-3.18,14.04-1.87,21.46.88,4.97,2.77,9.08,6.33,12.55,1.02.99,2.58,2.08.83,3.65-1.49,1.34-2.72.32-3.88-.72-6.44-5.76-8.42-13.2-8.05-21.51Z"/>
    <path class="cls-4" d="m46.41,187.42c-.9.04-1.64-.31-2.06-1.1-.79-1.47.29-2.58,1-3.59,5.12-7.27,11.55-13.15,19.3-17.52,2.74-1.54,5.57-2.94,8.42-4.25,1.67-.76,3.97-2.65,5.06.11.95,2.39-1.75,3.16-3.47,3.96-5.09,2.39-9.97,5.08-14.5,8.47-4.3,3.21-8.03,6.87-10.98,11.33-.72,1.09-1.2,2.42-2.77,2.58Z"/>
    <path class="cls-4" d="m221.6,251.22c-.9-.07-1.59-.51-1.95-1.32-.4-.89.04-1.67.71-2.18,5.85-4.5,12.55-7.25,19.58-9.25,1.18-.34,2.4.2,2.84,1.46.39,1.13-.43,1.94-1.38,2.32-6.44,2.58-12.97,4.97-18.84,8.78-.25.16-.64.13-.96.18Z"/>
    <path class="cls-4" d="m33.51,350.1c-3.45-1.23-6.86-2.83-9.99-4.97-.91-.62-1.89-1.58-1-2.89.74-1.09,1.91-1.49,3-.69,2.96,2.18,6.45,3.21,9.71,4.72,1.01.47,2.26,1.22,1.83,2.55-.52,1.59-2.12,1.19-3.55,1.28Z"/>
    <path class="cls-4" d="m42.74,193.71c-1.43,2.71-3.07,5.89-4.84,9.01-.19.33-1.24.48-1.72.28-1.26-.51-1.56-1.78-1.24-2.9.84-3.01,2.21-5.81,4.17-8.26.61-.77,1.44-1.41,2.54-.76.77.45,1.09,1.18,1.1,2.64Z"/>
    <path class="cls-2" d="m166.28,349.94c-3.3-2.92-6.6-5.84-9.9-8.77-.71-.63-1.7-1.19-.89-2.37.9-1.32,1.82-.93,2.85-.07,3.41,2.81,6.86,5.57,10.29,8.34.89,2.33.09,3.28-2.36,2.87Z"/>
    <path class="cls-6" d="m161.18,355.32c-2.74-1.11-5.54-2.13-8.21-3.4-.91-.43-3.01-.13-2.19-2.37.92-2.53,2.41-.78,3.53-.41,3.28,1.09,6.49,2.37,9.73,3.58,2,4.13-.75,3.02-2.87,2.6Z"/>
    <path class="cls-23" d="m279.2,215.52c4.04,4.93,7.47,10.19,7.73,16.8.09,2.27-.5,4.59-.92,6.85-.2,1.09-1.01,1.71-2.21,1.29-1-.35-1.04-1.1-.76-1.99,2.49-7.91-.58-14.27-5.72-19.95-2.44-2.69-.28-2.84,1.57-3.31,0,0,.32.32.32.32Z"/>
    <path class="cls-8" d="m141.35,84.09c5.11,1.59,6.38,3.65,5.34,8.66-.93-.49-.78-1.28-.56-2.08-.32.52-.37,1.15-.66,1.69-1.11,2.04-2.67,3.6-4.86,4.45-3.08.14-5.43-.76-6.03-4.19,1.4-3.53,3.03-6.87,6.77-8.53Z"/>
    <path class="cls-27" d="m120.65,98.72c-3.72.4-5.85-1.47-6.94-4.85,1.59-3.53,4.26-6.01,7.6-7.85,3.46.38,5.08,2.42,5.21,5.79-1.28,2.88-2.99,5.4-5.88,6.91Z"/>
    <path class="cls-31" d="m121.31,86.02c-2.4,2.74-4.47,5.81-7.6,7.85-.03-5.87,1.96-7.92,7.6-7.85Z"/>
    <path class="cls-12" d="m141.35,84.09c-2.26,2.84-4.51,5.69-6.77,8.53-.74-6.15.61-7.85,6.77-8.53Z"/>
    <path class="cls-1" d="m140.61,96.81c1.56-1.83,2.9-3.94,4.75-5.42,1.99-1.59.72,1.03,1.33,1.36-1.18,2.61-2.91,4.42-6.08,4.06Z"/>
    <path class="cls-14" d="m120.65,98.72c1.96-2.3,3.92-4.6,5.88-6.91.13,4.08-1.83,6.38-5.88,6.91Z"/>
  </g>
  <g>
    <path class="cls-22" d="m349.63,153.53c-2.9,4.98-1.93,10.15-1.15,15.48,2.18,14.91,3.91,29.9,6.09,44.81,1.49,10.19,3.86,20.21,8.42,29.53,7.58,15.47,19.44,24.47,37.28,24.14,2.66-1.26,2.31-3.78,2.46-6.04.52-7.83-.63-15.6-1.29-23.35-1.74-20.78,1.42-40.68,9.34-59.88-1.56,4.63-3.27,9.23-4.57,13.96-1.32,4.81-2.44,9.67-3.21,14.6-2.46,15.71-1.67,31.44.24,47.11.64,5.26.47,10.23-1.16,15.22-.61,1.88-1.27,3.82-.32,5.82,4.48-.73,2.43,4.7,5.22,5.56,1.63-.86,1.54-2.48,1.56-3.92.12-7.98,4.75-12.5,11.7-14.96,8.76-3.11,17.54-6.13,25.88-10.29,8.04-4.02,15.63-8.75,22.73-14.27-4.9,5.5-11.34,8.88-17.67,12.32-8.62,4.68-17.63,8.48-26.98,11.5-14.19,4.58-16.81,9.38-14,24.22,1.29,6.81,3.16,13.15,8.6,18.04,6.04,5.43,12.87,7.56,20.68,5.53,25.53-6.62,49.01-17.48,69.57-34.25,1.24-.9,1.84-2.65,3.88-2.85-1.26,2.37-3.25,3.72-5.21,5.09-19.67,15.35-41.85,25.53-65.8,32.07-10.25,2.8-19.01.57-26.18-7.42-.98-1.09-1.87-2.39-3.57-2.47-4.97,1.16-9.95,2.27-14.98,3.08-2.48.4-4.45,1.29-4.6,4.21-1.86,7.18-4.71,14.11-5.76,21.49-.96,6.71-1.14,13.33,5.28,17.88,1.5,1.06,1.23,2.52,1.36,3.98.17,1.91-.68,3.99.88,5.69,1.35-4.96,4.38-5.39,9.25-4.92,14.72,1.4,29.46-.52,44.19-1.13,6.64-.27,13.21-.62,19.85.08,10.08,1.07,20.25-.19,30.33.64,10.65.88,21.18.02,31.67-1.55,5.41-.81,10.72-2.3,14.97-6.14,10.8-10.92,4.92-23.76,3.75-35.85-1.31-13.54-2.75-27.08-3.28-40.66-.55-14.24-1.91-28.49-.52-42.79.92-9.43,2.87-18.67,4.36-27.99,3.16-19.72-2.44-36.38-16.71-50.22-.59-.57-1.09-1.24-1.64-1.86-9.28-4.78-13.95-5.45-25.24-3.78,6.65-2.58,13.26-2.01,19.86.4,1.78.65,3.42,2.15,5.57,1.23,3.89-5.65,4.12-10.68.72-15.56-2.97-4.26-7.64-5.78-13.58-4.43-4.81,1.4-9.84.94-14.74,1.79-12.2,2.12-23.01,6.88-32.47,16.38,8.3-10.19,18.8-14.45,30.42-16.58,3.74-.69,7.5-1.32,11.34-1.21,1.6.04,3.38.21,4.51-1.42,1.94-7.19.47-9.72-8.05-13.89-3.58-3.57-8.12-2.05-12.31-2.27-2.83-.15-5.61.44-8.32,1.29-4.45,3.99-10.06,6.2-14.85,9.72-8.6,6.32-14.94,14.44-19.9,23.76-.85,1.59-1.37,3.38-3.28,5.11.56-2.94,2.54-5.35.56-7.85-1.63-2.06-3.7-3.83-4.64-6.85,2.65,2.02,3.79,6.29,7.63,5.24,2.32-.64,3.34-3.07,2.81-5.71-1.4-3.69-2.45-7.46-3.21-11.33-.31-1.6-.27-3.91-3.11-3.16-5.4,4.03-11.03,7.82-14.54,13.84-.6,1.02-1.48,1.13-2.48,1.31-12.63,2.2-20.7,10.51-27.29,20.65-7.04,10.82-11.25,22.84-14.45,35.26-.42,1.63-.09,3.68-2.53,4.77-.89-6.66-1.54-13.15-2.69-19.55-1.08-6.02-2.68-11.95-4.08-17.91-.59-2.53-2.43-4.29-3.99-6.2-2.24-3.04-5.3-3.68-8.78-2.92-5,1.08-9.81,2.74-14.53,4.7-2.75,1.14-4.66,2.98-5.33,5.97Z"/>
    <path class="cls-9" d="m450.3,113.62c2.13.3,1.68,1.99,1.93,3.41.74,4.18,1.2,8.48,3.95,12,2.43.09,3.24-1.98,4.51-3.42,7.51-8.51,15.66-16.14,26.79-19.71,7.13-1.07,14.27-2.03,21.43-.22,1.94-5.05,3.88-10.11,5.96-15.55,9.32,11.62,19.85,21.3,31.9,29.25,12.98,8.57,23.97,6.31,32.59-6.84,8.85-13.5,9.82-27.59,1.68-41.72-7.58-13.16-19.44-19.63-34.47-19.73-8.05-.05-15.45,2.98-22.63,7.59.11-5.88,2.59-10.72,2.97-16.01,1.49-21-10.19-31.67-24.22-36.93-25.62-9.6-50.32-7.5-72.91,9.03-14.5,10.62-20.42,32.65-13.49,49.15,2.98,7.1,6.77,13.67,12.47,18.94,1.53,1.41,2.14,3.28,3.3,4.85,2.06-1.81,1.54-4.28,1.48-6.51-.19-7.25.55-14.37,2.36-21.4-.88,6.87-2.19,13.67-2.11,20.67.21,17.02,7.3,26.11,23.78,30.07,1.56.38,3.3.26,5.23,1.75-3.91-.77-7.17-2.76-10.59-.78-.63.7-1.27,1.4-1.9,2.1Z"/>
    <path class="cls-9" d="m349.63,153.53c6.4-7.43,20.32-11.19,28.63-7.75-1.35-3.47.15-5.33,2.84-7.82,5.48-5.07,8.25-12.29,12.35-18.48,1.19-1.79,2.27-3.66,3.31-5.54.98-1.78.86-3.46-.65-4.99-1.7-1.72-3.14-.97-4.81.17-2.87,1.96-5.79,3.84-8.22,6.37-.85.88-1.87,1.45-3.12,1.02-1.77-.62-.59-2.01-.56-2.97.29-8.93.74-17.85,1.01-26.77.07-2.34.88-5.37-2.81-5.87-3.88-.52-4.57,2.32-5.18,5.23-1.25,5.97-3.46,11.72-4.01,17.84-.09,1.01-.68,1.42-1.57,1.58-.68-.34-1.38-.46-2.1-.13.03,3.77,3.51,1.77,5.12,3.09-8.45.12-16.9-.91-25.43,1.81,3.07-2.95,7.97-.44,10.2-4.41-1.31-6.79-2.68-13.57-3.92-20.38-.45-2.48-1.19-4.89-4.17-4.41-2.83.46-3.21,3.04-2.94,5.5.74,6.52,1.55,13.04,1.57,19.85-1.72-3.63-3.35-7.3-5.18-10.88-1.14-2.22-1.79-5.87-5.35-4.48-3.58,1.4-2.08,4.65-1.29,7.3,4.21,14.08,8.47,28.15,12.67,42.23,1.27,4.26,2.41,8.57,3.61,12.85Z"/>
    <path class="cls-9" d="m392.57,306.08c1.11-1.75,2.55-2.58,4.73-2.99,5.12-.96,10.51-.94,15.24-3.59-1.07-6.73-1.39-13.66-5.49-19.53-.79-2.54-.43-6.31-5.06-4.7-1.53-1.13-2.45.02-3.43.93-8.05,1.62-16.09,3.24-24.14,4.86-.32.06-.68.16-.98.08-16.24-4.53-23.11,8.73-32.26,17.31-2.66,2.49-2.22,6.4-.5,9.77,2.35.34,3.13-1.65,4.06-3.04,3.7-5.53,9.01-9.09,14.54-12.57.14,1.5-1.12,1.64-1.83,2.21-.9.72-1.95,1.24-2.86,1.96-5.07,4-10.03,8.09-11.92,14.68,1.61.55,3.22,1.11,4.84,1.66,5.53-4.63,10-10.49,16.51-14.01-3.13,3.45-7.16,5.97-10.11,9.59-1.06,1.3-3.12,2.18-2.22,4.48,8.23-.38,16.51.86,24.72-.8,4.12-.83,7.82-2.47,11.36-4.72,1.37-.87,2.73-2.61,4.82-1.57Z"/>
    <path class="cls-30" d="m544.59,342.11c-6.37,1.53-12.15,4.99-18.95,5.24-8.83.32-17.58,2.23-26.5.85-2.92-.45-5.96-.13-8.94-.12-9.92.03-19.83-.73-29.71-.79-16.82-.1-33.64,1.14-50.47,1.76-3.63.13-7.29.28-10.81-.95-3.88-1.35-5.48-.04-4.86,4.05.15.97-.01,1.99-.03,2.98,1.17,2.6,3.51,2.73,5.87,2.73,46.07,0,92.14,0,138.2.02,4.29,0,6.51-1.89,6.36-6.31-.1-3.15-.12-6.3-.17-9.45Z"/>
    <path class="cls-7" d="m398.55,276.2c1.14-.31,2.29-.62,3.43-.93,5.47-12.6,1.96-25.49,1.19-38.28-1.23-20.51,1.33-40.38,9.78-59.3.48-1.09,2.42-2.48.09-3.66-2.66-1.35-2.64,1.34-3.18,2.51-8.24,18.04-10.77,37.14-10.2,56.79.27,9.29,1.97,18.5,1.55,27.83-.1,2.15.16,4.34-.95,6.33-.57,2.91-1.14,5.81-1.71,8.71Z"/>
    <path class="cls-9" d="m364.28,105.87c.85-.1,1.7-.2,2.55-.3-.6-8.03-.25-16.11-1.25-24.13-.34-2.7-.73-5.15-3.8-5.41-3.13-.27-4.16,2.04-4.47,4.77-.96,8.32-1.83,16.65-1.85,25.04,2.93,1.96,5.87,1.95,8.82.04Z"/>
    <path class="cls-20" d="m452.21,111.52c3.26.51,6.52,1.01,9.77,1.53,1.19.19,2.3.41,2.39-1.4.09-1.67-.86-1.74-2.14-1.88-2.46-.28-4.93-.62-7.32-1.26-12.12-3.26-18.82-11.76-19.61-24.38-.52-8.35.79-16.5,2.16-24.67.19-1.15,1.98-3.01-.62-3.6-2.66-.6-2.32,1.82-2.62,3.22-2.04,9.44-2.66,19-2.17,28.63,1.93,11.99,8.74,19.85,20.15,23.81Z"/>
    <path class="cls-3" d="m516.97,119.56c-14.55-.23-28.32,2.45-40.29,11.29-2.77,2.05-5.07,4.73-7.61,7.09-1.05.97-1.26,1.83,0,2.82,1.07.84,1.72.39,2.47-.47,11.5-13.01,26.5-17.35,43.21-17.29,1.88,0,2.67-.84,3.15-2.39-.31-.35-.62-.7-.93-1.05Z"/>
    <path class="cls-25" d="m364.28,105.87c-2.94-.01-5.88-.03-8.81-.04-.26.26-.54.29-.85.1-3.68.87-7.36,1.73-11.04,2.61-1.15.28-2.43.56-1.86,2.21.45,1.31,1.34,1.6,2.73,1.11,8.5-3.05,17.24-2.85,26.01-1.6,1.33.19,2.22.33,2.62-1.2.46-1.78-.88-1.93-1.96-2.14-2.26-.42-4.54-.7-6.82-1.04Z"/>
    <path class="cls-26" d="m530.75,140.59c-8.45-5.01-17.37-5.97-26.74-3.1-1.15.35-2.4.55-2.09,2.16.38,1.97,1.77,1.52,3.08,1.14,7.97-2.31,15.71-2.2,22.94,2.37,1.19.75,1.79-.02,2.61-.42.06-.71.13-1.43.19-2.15Z"/>
    <path class="cls-25" d="m342.66,311.45c4.82-6.75,10.28-12.84,17.55-17.07,1.16-.67,2.5-1.28,1.26-2.96-1.25-1.7-2.31-.32-3.35.28-7.14,4.1-12.61,9.99-17.46,16.51-.81,1.99.71,2.54,2,3.23Z"/>
    <path class="cls-33" d="m351.67,313.17c3.26-5.09,8.16-8.45,12.77-12.12.96-.76,3.14-1.15,1.52-3.27-1.59-2.08-2.6-.17-3.56.58-5.57,4.29-11.52,8.23-14.89,14.75,1.37,1.26,2.75,1.95,4.18.06Z"/>
    <path class="cls-32" d="m407.05,279.97c1.77,6.52,2.1,13.45,5.49,19.53,7.81,10.57,17.4,14.03,30.01,10.46,24.13-6.82,46.73-16.81,66.28-32.9q1.58-3.16-.11-3.9c-19.81,15.84-42.16,26.62-66.5,33.45-15.07,4.23-26.75-2.8-29.9-18.13-.5-2.43-1.09-4.85-1.57-7.28-1.79-9.1,1.71-15.12,10.58-17.95,15.86-5.06,30.98-11.64,44.51-21.49,1.74-1.26,3.35-2.7,4.94-4.15.79-.71,2.02-1.41.9-2.83-1.32-1.67-2.23-.47-3.2.41-7.69,6.98-16.73,11.77-25.99,16.25-6.27,3.03-12.75,5.52-19.35,7.7-12.97,4.29-15.45,7.46-16.1,20.82Z"/>
    <path class="cls-17" d="m487.49,105.89c-1.5-2.39-2.95-.24-4.12.26-11.35,4.85-19.76,13.28-27.17,22.87-.94,1.69-1.54,4.41-3.43,4.41-2.15,0-3.08-2.67-4.2-4.47-.52-.84-.87-1.78-1.35-2.65-.62-1.12-1.64-1.01-2.56-.56-.99.48-.66,1.4-.36,2.14.92,2.31,1.85,4.77,3.78,6.33,2.81,2.27,3.22,4.48,1.26,7.52-.58.9-2.29,2.59.11,3.63,2.3,1,2.32-1.18,2.88-2.34,7.35-15.21,17.76-27.39,33.55-34.33,1.2-.53,2.53-1.04,1.61-2.81Z"/>
    <path class="cls-13" d="m389.5,212.89c-.06-6.32.79-12.54,1.73-18.77.18-1.2,1.51-3.16-1-3.57-2.47-.41-1.84,1.74-2.11,3.03-1.91,8.98-2.06,18.08-1.86,27.2.03,1.26-.28,2.87,1.84,2.7,1.76-.14,1.37-1.53,1.39-2.62.03-2.65.01-5.3.01-7.96Z"/>
    <path class="cls-29" d="m508.72,273.16c1.76,1.25-1.73,2.65.11,3.9,1.89-1.51,3.81-2.99,5.67-4.54.73-.61,1.52-1.31.58-2.39-.87-1-1.74-1.39-2.84-.29-1.14,1.14-2.34,2.22-3.51,3.32Z"/>
    <path class="cls-11" d="m456.95,67.42c-.15,1.55.62,2.07,1.75,1.59,3.03-1.28,5.95-1.43,9-.03.87.4,2.34.07,1.85-1.28-1.02-2.8-3.59-3.84-6.29-3.86-2.68-.02-5.14.95-6.31,3.58Z"/>
    <path class="cls-21" d="m444.02,62.72c-1.01.37-2.49.69-3.73,1.43-1.06.63-2.62,1.55-2.01,3.01.76,1.84,2.17.35,3.31.11,2.31-.49,4.57-.47,6.69.75.86.49,1.76,1.17,2.57.03.75-1.06-.14-2-.68-2.62-1.47-1.66-3.54-2.29-6.13-2.71Z"/>
    <path class="cls-18" d="m376.06,117.43c-8.18.51-14.45,4.12-19.31,10.26-.87,1.1-2.94,2.5-.67,4.07,2.01,1.39,2.42-.85,3.25-1.88,4.39-5.4,9.84-8.7,16.95-9.1,1.48-.08,4.32,1.38,4.23-1.61-.1-3.31-3.13-1.05-4.45-1.75Z"/>
  </g>
</svg>