<?xml version="1.0" encoding="UTF-8"?>
<svg id="Layer_1" data-name="Layer 1" xmlns="http://www.w3.org/2000/svg" viewBox="0 0 270.21 525.55">
  <defs>
    <style>
      .cls-1 {
        fill: #7672ad;
      }

      .cls-1, .cls-2, .cls-3, .cls-4, .cls-5, .cls-6, .cls-7, .cls-8, .cls-9, .cls-10, .cls-11, .cls-12, .cls-13, .cls-14, .cls-15, .cls-16 {
        stroke-width: 0px;
      }

      .cls-2 {
        fill: #0f0d14;
      }

      .cls-3 {
        fill: #060606;
      }

      .cls-4 {
        fill: #030303;
      }

      .cls-17, .cls-18 {
        isolation: isolate;
      }

      .cls-5 {
        fill: #eeedd7;
      }

      .cls-18 {
        font-family: VeniceBlvd-Bold, 'Venice Blvd';
        font-size: 75.44px;
        font-weight: 700;
      }

      .cls-6 {
        fill: #5671a7;
      }

      .cls-7 {
        fill: #1b3968;
      }

      .cls-8 {
        fill: #090908;
      }

      .cls-9 {
        fill: #a9bdde;
      }

      .cls-10 {
        fill: #0f0d12;
      }

      .cls-11 {
        fill: #0e0c12;
      }

      .cls-12 {
        fill: #110f14;
      }

      .cls-13 {
        fill: #cbb1fe;
      }

      .cls-14 {
        fill: #7c76b2;
      }

      .cls-15 {
        fill: #b3c6e5;
      }

      .cls-16 {
        fill: #b4c7e5;
      }
    </style>
  </defs>
  <path class="cls-5" d="m188.04,429.04c1.8,12.5,3.61,25,5.4,37.5,1.9,13.28-2.14,19.58-14.79,22.71-17.04,4.22-34.23,4.31-51.48.21-3.5-.83-7.47-.44-11.25-.75-12.67-1.03-25.25-3.51-38.05-2.72-1.53-.42-2.34-1.61-2.78-2.97-3.16-9.79-7.23-19.29-9.25-29.44-1.95-13.42-7.09-25.84-12.03-38.3-3.18-8.02-6.5-15.95-7.87-24.55.62-11.9,3.55-23.46,5.19-35.21,1.03-7.39.37-8.77-6.55-11.26-8.77-3.15-17.81-4.73-27.16-4.69-3.31.02-6.89.91-9.8-1.67,2.56-16.44,3.82-33.4,11.14-48.48,7.06-14.53,19.4-24.7,34.18-31.03,7.89-3.38,14.95-8.77,23.65-10.25,12.56,9.51,26.5,15.15,42.43,15.37,7.45.11,13.84-2.49,19.27-7.4,2.71-2.44,5.57-4.64,8.51-6.75,3.46-.65,6.11,1.44,9.08,2.58,25.06,9.6,37.36,28.64,40.59,54.57,1.36,10.92,5.3,21.37,6.05,32.4-.58.9-1.49,1.53-2.47,1.5-8.16-.28-15.6,2.5-23.02,5.36-4.37-2.35-1.94-7.4-4.55-10.55,7.07,30.96,9.6,62.65,15.53,93.79l.03.03Z"/>
  <path class="cls-13" d="m146.81,249.38c-5.58,10.58-19.99,17.27-33.89,15.61-11.51-1.38-22.04-5.61-31.91-11.58-2.07-1.25-4.3-2.36-4.41-5.26,4.94-1.72,9.81-3.59,14.22-6.48,3.88-2.54,4.09-6.45-.11-8.22-13.05-5.48-25.1-12.67-36.73-20.64-8.06-5.52-13.93-12.68-16.07-22.5-.94-4.3,3.8-8.58,1.8-11.68-1.84-2.86-7.39-2.41-10.47-5.32-2.47-2.34-5.64-4.14-7.55-6.85-2.98-4.24-4.32-9.18-1.79-14.29,2.55-5.14,7.46-6.44,12.53-7.18,2.15-.32,4.41-.27,7.65,1.78-2.4-4.76-4.29-8.12-5.83-11.64-4.42-10.11-.07-16.93,10.86-16.91,4.6,0,9.27-.72,13.81.77,3.34,1.09,4.04-1.71,5.26-3.7,8.12-13.18,19.41-22.34,34.11-27.33,5.33-1.81,10.78-1.66,16.15-1.15,6.47.62,9.99,6.34,8.52,13.69,12.9-6.9,26.59-9.3,40.57-9.39,12.41-.08,24.57.45,34.93,9.79,10.81,9.74,9.99,27.14.67,37.24-8.53,9.24-19.46,12.18-31.17,14.11-8.43,1.39-16.85,1.2-25.29,1.11-3.96-.04-4.62,1.12-2.7,4.49,2.37,4.15,3.79,8.81,6.79,12.62,1.21,8.72,3.16,17.34,2.97,26.26-.33,15.18-10.22,27.24-25.1,30.09-.9.17-1.82.31-2.69.58,2.65,0,5.37-1.89,7.95.29v1.2c-.06,14.11,2.63,17.37,16.92,20.51v-.02Z"/>
  <path class="cls-13" d="m176.97,345.25c7.55-6.06,16.5-6.45,25.57-6.31,4.12.98,1.59,5.81,4.67,7.77,5.68-10.36,11.28-20.74,17.07-31.02.93-1.65.83-2.95.19-4.49-1.52-3.61-1.32-7.46-1.48-11.26-2.11-2.55-1.47-5.43-.49-8.04,3.6-9.58,3.12-18.92-.94-28.23-.88-2.02-1.55-4.16-1.88-6.36-.39-2.56-.08-4.98,2.62-6.11,2.87-1.21,4.48.71,5.85,2.85.44.68.71,1.45,1.12,2.13.51,1.34,1.22,2.59,2.04,3.98-.43-1.28-1.27-2.15-1.61-3.29-1.13-2.82-3.39-5.08-3.97-8.14-.52-2.72-.48-5.39,2.38-6.85,3.02-1.54,5.68-.34,7.46,2.1,2.33,3.18,3.47,6.95,4.24,10.79-.45-3.23-1.96-6.17-3.02-9.23-.46-1.33-1.13-2.61-1.33-4.02-.47-3.15-.59-6.52,3.23-7.43,3.62-.86,5.55,1.58,6.25,4.96.25,1.19.51,2.37.89,3.52,1.27,4.76,2.87,9.4,4.83,13.9-2.04-4.82-3.66-9.8-5.03-14.86-.89-3.06.39-5.21,3.18-6.11,2.78-.9,4.45,1.17,5.7,3.26,2.59,4.33,3.37,9.3,4.81,14.05-.08,8.52,5.68,14.86,8.52,22.27,4.33,11.3,2.81,20.71-5.26,29.49-2.79,3.03-3.46,7.15-4.34,11.12-4.96,22.29-10.89,44.4-22,64.41-5.34,9.63-11.28,19.49-21.05,25.98-7.86,5.22-15.93,6.19-24.66,2.86-1.2-.46-2.31-1.89-3.83-.68-2.8-.42-2.51-2.84-2.8-4.67-2.76-17.53-5.4-35.09-7.94-52.65-.29-2.03-.58-4.03,1.04-5.7h-.03Z"/>
  <path class="cls-13" d="m7.62,337.92c12.91-.39,25.68.12,37.99,4.76,8.44,3.18,8.81,3.97,7.28,12.77-2.07,11.85-3.72,23.78-5.55,35.67-3.12-.3-1.55,1.57-1.21,2.74,3.8,12.89,8.92,25.3,13.42,37.94,2.56,7.18,4.64,14.52,7.36,21.64,3.65,10.85,7.3,21.71,10.94,32.56,1.26,4.54,2.52,9.08,3.78,13.62.23,1.33-.35,2.45-1.27,3.21-6.32,5.21-12.42,10.69-19.11,15.44-.81.58-1.75.98-2.76.3-5.23-9-10.76-17.84-15.64-27.02-8.97-16.9-20.15-32.49-29.08-49.37C-.35,415.49-3.12,387.08,3.22,357.73c1.43-6.61,1.9-13.43,4.37-19.81h.03Z"/>
  <path class="cls-7" d="m244.97,243.2c-1.71-3.03-.98-9.38-6.15-7.91-5.51,1.57-1.4,6.45-.71,9.76.85,4.06,2.37,7.97,2.51,12.36-1.67-3.61-3.4-7.2-5.01-10.84-1.41-3.2-3.76-5.01-7.05-3.47-3.29,1.53-1.79,4.38-.84,6.83,1.02,2.63,2.01,5.26,3.01,7.89-.52.45-1.02.44-1.5-.05-.46-.9-.94-1.78-1.36-2.7-1.01-2.2-2.45-4.06-5.08-2.98-2.62,1.07-2.37,3.42-1.59,5.7,1.24,3.63,2.31,7.32,3.76,10.86,2.75,6.71,2.72,13.31.13,20.05-1.38,3.58-2.31,7.32-2.09,11.23-.2.02-.41.08-.6.05-17.75-2.23-18.99-3.96-15.86-21.51,3.58-20.05,7.1-40.11,10.58-60.17,1.63-9.4,4.55-11.74,13.87-10.39,6.96,1.01,13.9,2.2,20.83,3.45,13.58,2.44,17.03,7.83,12.03,20.45-2.72,6.86-3.14,13.98-4.55,21-3.32-3.52-3.71-8.37-5.62-12.54-.97-2.13-1.96-4.23-4.76-3.57-2.74.65-3.19,2.76-2.61,5.24.33,1.24-.2,1.57-1.33,1.25h-.01Z"/>
  <path class="cls-3" d="m176.97,345.25c2.73,21.09,5.62,42.15,9.7,63.02.7,5.1,1.46,10.2,2.07,15.31.22,1.83,1.48,3.89-.69,5.46-2.62-.1-2.36-2.08-2.63-3.86-3.57-23.67-6.91-47.38-10.98-70.97-1.17-6.78-3.21-13.46-4-20.35-.16-1.36-1.49-3.13,1.4-3.51,2.67-.35,2.79,1.14,3.07,3.11.55,3.95,1.37,7.86,2.07,11.79h-.01Z"/>
  <path class="cls-10" d="m129.89,227.68c-3.15.55-6.31,1.1-9.46,1.64-1.32.22-2.98,1.04-3.38-1.11-.4-2.16,1.35-2.01,2.73-2.17,10.05-1.13,18.26-5.01,24.16-13.89,2.5-3.75,3.51-7.49,3.87-11.58.7-8.08-.17-16.09-1.87-24.02-.44-2.08-1.48-4.35.83-6.09,1.18.08,1.84.88,2.03,1.88,1.85,9.87,3.58,19.75,2.57,29.89-1.33,13.46-9.93,20.69-21.48,25.44h0Z"/>
  <path class="cls-12" d="m58.52,518.58c7.99-5.97,15.77-12.2,23.13-18.96,2.28-.29,4.87-4.22,6.42-1.38,1.63,3-2.59,3.77-4.6,5.35-7.92,6.18-15.67,12.56-23.49,18.86-1.09.88-2.14,1.84-3.31,2.59-1.38.87-2.66.66-3.6-.82-1.25-1.97.38-2.52,1.62-2.9,1.64-.5,2.67-1.69,3.84-2.74h-.01Z"/>
  <path class="cls-4" d="m66.92,453.44c-1.75-.05-2.16-1.24-2.66-2.7-6.71-19.41-13.55-38.78-20.16-58.23-.51-1.49-3.04-3.93-.13-5.12,3.12-1.27,1.73,2.89,3.37,3.73,5.02,19.27,14.31,37.07,19.34,56.33.48,1.84,2.86,3.92.23,5.99h0Z"/>
  <path class="cls-8" d="m151.72,480.25c-16.1-.46-31.93-3.58-47.95-4.93-1.06-.09-2.74.48-2.76-1.34-.03-2.14,1.64-1.79,3.05-1.64,9.59,1.01,19.2,1.89,28.77,3.05,12.82,1.56,25.6,2.87,38.33-.54,1.49-.4,3.39-1.31,3.79,1.23.39,2.46-1.88,1.48-2.96,1.84-6.59,2.19-13.42,2.38-20.28,2.34h.01Z"/>
  <path class="cls-2" d="m114.06,177.4c.18-2.32-.64-4.77,1.69-5.16,2.56-.43,2.94,2.07,3.46,3.98.05.19.08.39.09.59.18,2.7,1.46,5.53-.72,7.98-.25.27-1.38.27-1.54.02-1.6-2.43-3.69-4.72-2.97-7.41h-.01Z"/>
  <path class="cls-11" d="m134.95,179.67c-.15,1.89.66,4.69-1.88,4.95-2.04.21-2.04-2.48-2.42-4.18-.04-.19-.1-.38-.13-.58-.38-2.5-1.53-5.02-.09-7.51.44-.76,1.42-.97,2.02-.36,2.1,2.11,2.43,4.87,2.49,7.68h0Z"/>
  <path class="cls-14" d="m244.97,243.2c.44-.42.89-.83,1.33-1.25,1.59,4.83,3.17,9.65,4.76,14.48-3.07-4.03-4.79-8.54-6.09-13.23h0Z"/>
  <path class="cls-1" d="m229.21,257.77c.5.02,1,.03,1.5.05.46.61.87,1.28,1.4,1.83,1.01,1.06,3.2,2.18,1.2,3.62-1.58,1.14-1.98-1.29-2.67-2.27-.67-.94-.97-2.14-1.43-3.22h0Z"/>
  <path class="cls-6" d="m219.16,232.28c.98-5.52,1.85-11.06,2.99-16.55.55-2.64,2.43-4.32,5.25-3.83,3.02.52,4.48,2.73,4.03,5.73-.81,5.35-1.79,10.67-2.9,15.96-.58,2.78-1.48,6.01-5.09,5.64-3.88-.4-4.27-3.65-4.29-6.95h0Z"/>
  <path class="cls-9" d="m225.33,228.47c-1.88-.09-3.07-1.07-3.1-2.9-.02-1.55,1.03-2.63,2.59-2.76,1.91-.15,3.02,1.06,3.05,2.85.03,1.52-1,2.51-2.54,2.81h0Z"/>
  <path class="cls-15" d="m226.96,214.05c1.65.22,2.42,1.22,2.25,2.81-.19,1.68-1.39,2.31-2.92,2.09-1.29-.19-2.02-1.12-1.97-2.47.07-1.66,1.02-2.42,2.64-2.43Z"/>
  <path class="cls-16" d="m223.58,237.24c-1.8-.36-2.79-1.31-2.52-2.95.21-1.29,1.27-2.07,2.61-2.03,1.59.05,2.74.94,2.64,2.61s-1.36,2.28-2.72,2.37h0Z"/>
  <g class="cls-17">
    <text class="cls-18" transform="translate(33.25 90.7) rotate(-18.14)"><tspan x="0" y="0">?</tspan></text>
  </g>
  <g class="cls-17">
    <text class="cls-18" transform="translate(93.67 62.23) rotate(13.97)"><tspan x="0" y="0">?</tspan></text>
  </g>
  <g class="cls-17">
    <text class="cls-18" transform="translate(187.02 90.7) rotate(-6.58)"><tspan x="0" y="0">?</tspan></text>
  </g>
</svg>